<svg xmlns="http://www.w3.org/2000/svg" xmlns:xlink="http://www.w3.org/1999/xlink" width="398.062" height="107.998"><defs><path id="a" d="M0 .075h52.26v52.23H0Z"/><path id="c" d="M3.025.041A3.024 3.024 0 0 0 0 3.065v17.127a5.065 5.065 0 0 0 5.067 5.064h42.126a5.065 5.065 0 0 0 5.067-5.064V3.065A3.024 3.024 0 0 0 49.234.041Z"/><path id="e" d="M5.067.075A5.065 5.065 0 0 0 0 5.14v17.127a3.024 3.024 0 0 0 3.025 3.024h46.21a3.024 3.024 0 0 0 3.025-3.024V5.139A5.065 5.065 0 0 0 47.193.075Z"/></defs><g fill="none" fill-rule="evenodd"><g transform="translate(.782 -.146) scale(1.94122)"><mask id="b" fill="#fff"><use xlink:href="#a" width="100%" height="100%"/></mask><path fill="#eeeeef" d="M5.067 52.305A5.065 5.065 0 0 1 0 47.24V5.139A5.065 5.065 0 0 1 5.067.075h42.126A5.065 5.065 0 0 1 52.26 5.14v42.102a5.065 5.065 0 0 1-5.067 5.064H5.067Z" mask="url(#b)"/></g><g transform="translate(.782 52.362) scale(1.94122)"><mask id="d" fill="#fff"><use xlink:href="#c" width="100%" height="100%"/></mask><path d="M3.025.041A3.024 3.024 0 0 0 0 3.065v17.127a5.065 5.065 0 0 0 5.067 5.064h42.126a5.065 5.065 0 0 0 5.067-5.064V3.065A3.024 3.024 0 0 0 49.234.041Z" mask="url(#d)"/></g><g transform="translate(.782 -.146) scale(1.94122)"><mask id="f" fill="#fff"><use xlink:href="#e" width="100%" height="100%"/></mask><path d="M5.067.075A5.065 5.065 0 0 0 0 5.14v17.127a3.024 3.024 0 0 0 3.025 3.024h46.21a3.024 3.024 0 0 0 3.025-3.024V5.139A5.065 5.065 0 0 0 47.193.075Z" mask="url(#f)"/></g><path fill="#813588" d="M365.566 50.878c-1.524-1.776-3.47-3.552-5.672-3.552-2.708 0-5.754 1.69-5.754 6.004 0 1.608.76 3.638 2.284 5.414 4.148 5.074 11.002 9.22 20.65 9.22 11.424 0 20.988-6.43 20.988-17.932 0-22.414-29.79-20.214-29.79-30.194 0-3.892 2.624-6.09 7.024-6.09 3.386 0 6.094.846 8.04 2.452 2.2 1.692 3.894 4.99 7.532 4.99 3.046 0 5.754-2.03 5.754-5.074 0-4.398-4.4-8.542-8.208-10.74-3.216-1.862-7.448-3.3-13.2-3.3-9.65.168-19.128 5.412-19.128 17.93 0 20.214 29.79 16.662 29.79 29.35 0 4.566-3.556 6.85-8.886 6.85-4.74 0-8.124-2.114-11.426-5.328zM158.778 27.534c-3.98.76-6.516 2.368-6.516 6.174 0 3.89 2.454 6.006 6.43 6.512 6.856.762 9.226 3.13 9.226 8.374 0 4.82-3.98 7.442-11.596 7.442h-12.44V13.24h13.456c5.08 0 7.618 3.044 7.618 7.612 0 3.976-2.37 6.006-6.18 6.68zm70.938 22.752c0 5.836 5.16 16.83 19.38 16.83 14.046 0 21.156-8.372 21.156-23.428v-33.66c0-4.4-2.54-7.02-6.094-7.02-3.808 0-6.092 2.62-6.092 7.02v33.914c0 7.696-2.624 11.334-8.632 11.42-10.24.168-5.84-10.66-13.118-11.25-3.216-.254-6.6 1.86-6.6 6.174zM342.872 25.42c1.44 0 3.216-.76 4.232-2.96 1.608-3.468 3.216-10.066 3.216-13.026 0-4.06-1.862-6.596-6.264-6.596-4.484.168-6.346 3.044-6.346 8.372v4.82c0 6.006 1.692 9.39 5.162 9.39zm-132.96 3.89L196.29 6.644c-1.354-2.198-2.794-3.636-5.416-3.636-3.47 0-6.18 2.368-6.18 5.498 0 1.946.594 3.382 1.61 4.99l17.518 28.08v18.776c0 4.4 2.792 7.02 6.008 7.02 3.64 0 6.178-2.62 6.178-7.02V41.576l17.518-28.08c1.016-1.608 1.608-3.044 1.608-4.99 0-3.13-2.708-5.498-6.18-5.498-2.62 0-4.06 1.44-5.414 3.636l-13.626 22.668zm-40.556 3.89c5.078-3.298 7.7-7.864 7.7-13.194 0-10.488-7.36-17.93-22.256-17.93h-16.926c-3.64 0-6.092 2.368-6.092 6.004v53.286c0 3.552 2.454 6.004 6.092 6.004l16.84.17c19.296.168 25.644-8.12 25.644-18.27 0-7.274-4.148-13.024-11.002-15.816 0 0-.078-.034-.078-.116 0-.092.078-.138.078-.138zm136.778 33.832c-14.894 0-23.526-8.966-23.526-26.812V10.026c0-4.398 2.454-7.02 6.092-7.02 3.554 0 6.094 2.622 6.094 7.02V39.29c0 12.01 3.892 15.816 11.34 15.816 7.446 0 11.34-3.806 11.34-15.816V10.026c0-4.398 2.54-7.02 6.094-7.02 3.638 0 6.092 2.622 6.092 7.02V40.22c0 17.846-8.632 26.812-23.526 26.812z"/><path fill="#813588" d="M288.702 4.142c3.554 0 6.094 2.622 6.094 7.02v-1.136c0-4.398-2.54-7.02-6.094-7.02-3.64 0-6.092 2.622-6.092 7.02v1.136c0-4.398 2.454-7.02 6.092-7.02m6.094 36.284c0 12.01 3.892 15.816 11.34 15.816s11.34-3.806 11.34-15.816V39.29c0 12.01-3.892 15.816-11.34 15.816s-11.34-3.806-11.34-15.816zm73.504-20.09a8.28 8.28 0 0 0-.028.638c0 9.884 29.22 7.826 29.776 29.562.004-.168.014-.334.014-.504 0-22.032-28.78-20.282-29.76-29.696M190.874 4.142c2.624 0 4.06 1.438 5.416 3.638l13.624 22.664L223.54 7.778c1.354-2.2 2.792-3.638 5.416-3.638 3.292 0 5.894 2.132 6.152 5.024.016-.216.026-.434.026-.662 0-3.13-2.708-5.498-6.18-5.498-2.62 0-4.06 1.44-5.414 3.636l-13.626 22.668L196.29 6.644c-1.354-2.198-2.792-3.636-5.416-3.636-3.47 0-6.18 2.368-6.18 5.498 0 .228.012.446.028.66.26-2.89 2.86-5.022 6.152-5.022m169.02 44.318c2.2 0 4.148 1.776 5.67 3.552 3.3 3.214 6.686 5.328 11.426 5.328 5.332 0 8.886-2.284 8.886-6.85 0-.212-.01-.418-.026-.62-.264 4.22-3.736 6.334-8.86 6.334-4.74 0-8.126-2.114-11.426-5.328-1.522-1.776-3.468-3.552-5.67-3.552-2.708 0-5.754 1.692-5.754 6.004 0 .16.014.33.028.5.288-3.84 3.158-5.368 5.726-5.368m15.318-45.25c5.754 0 9.986 1.438 13.202 3.3 3.646 2.104 7.824 5.994 8.174 10.18a4.86 4.86 0 0 0 .034-.576c0-4.4-4.4-8.542-8.208-10.74-3.216-1.862-7.448-3.3-13.2-3.3-9.65.17-19.128 5.414-19.128 17.93 0 .196.008.384.014.576.28-12.11 9.612-17.204 19.112-17.37M229.718 50.284c0 .216.008.44.022.666.24-3.992 3.484-5.946 6.58-5.702 7.276.592 2.876 11.418 13.116 11.248 6.008-.084 8.632-3.72 8.632-11.418v-1.136c0 7.696-2.624 11.334-8.632 11.42-10.24.168-5.84-10.66-13.118-11.25-3.216-.254-6.6 1.86-6.6 6.174m93.852-47.28c-3.556 0-6.094 2.622-6.094 7.02v1.136c0-4.4 2.54-7.02 6.094-7.02 3.638 0 6.092 2.62 6.092 7.02v-1.136c0-4.398-2.454-7.02-6.092-7.02m20.49-.168c-4.486.168-6.348 3.044-6.348 8.372v1.136c0-5.328 1.86-8.204 6.348-8.374 4.184 0 6.07 2.3 6.244 6.018a10.34 10.34 0 0 0 .018-.556c0-4.06-1.862-6.596-6.262-6.596m-79.9.168c-3.808 0-6.092 2.622-6.092 7.02v1.136c0-4.4 2.284-7.02 6.092-7.02 3.554 0 6.094 2.62 6.094 7.02v-1.136c0-4.398-2.54-7.02-6.094-7.02m-126.284.206h16.926c14.578 0 21.936 7.132 22.242 17.268.004-.16.014-.314.014-.474 0-10.488-7.36-17.93-22.256-17.93h-16.926c-3.64 0-6.092 2.368-6.092 6.004v1.136c0-3.636 2.454-6.004 6.092-6.004m20.904 24.322c-3.978.76-6.516 2.368-6.516 6.174 0 .2.01.394.022.586.24-3.41 2.714-4.9 6.494-5.624 3.808-.676 6.178-2.706 6.178-6.68 0-.202-.012-.396-.02-.59-.214 3.612-2.53 5.49-6.16 6.134m-2.452 29.638c7.616 0 11.594-2.62 11.594-7.442 0-.25-.012-.49-.022-.728-.224 4.556-4.178 7.036-11.572 7.036h-12.44v1.134zm13.032-23.718s-.078-.034-.078-.116c0-.092.078-.138.078-.138a.638.638 0 0 0-.594 1.128l.594.262c6.726 2.74 10.834 8.332 10.988 15.412.006-.244.014-.486.014-.732 0-1.866-.302-3.692-.854-5.428-1.54-4.68-5.108-8.336-10.148-10.388m-38 46.806c0-.472.172-.876.52-1.212a1.734 1.734 0 0 1 1.248-.504h14.55a1.7 1.7 0 0 1 1.24.528 1.73 1.73 0 0 1 .53 1.27 1.656 1.656 0 0 1-.53 1.238 1.734 1.734 0 0 1-1.244.51h-5.258v17.188c0 .55-.2 1.02-.596 1.41a1.992 1.992 0 0 1-1.45.586 1.892 1.892 0 0 1-1.408-.586 1.94 1.94 0 0 1-.572-1.41V82.09h-5.256a1.69 1.69 0 0 1-1.26-.528 1.794 1.794 0 0 1-.514-1.302m21.074 19.232V80.096a1.66 1.66 0 0 1 .528-1.24 1.844 1.844 0 0 1 1.338-.51 1.68 1.68 0 0 1 1.23.52 1.68 1.68 0 0 1 .52 1.23v6.894c.616-.726 1.432-1.348 2.45-1.864a7.276 7.276 0 0 1 3.342-.776c1.74 0 3.05.446 3.936 1.336.886.892 1.328 2.172 1.328 3.844v9.962a1.714 1.714 0 0 1-.528 1.254 1.752 1.752 0 0 1-1.286.528 1.724 1.724 0 0 1-1.28-.528 1.726 1.726 0 0 1-.52-1.254v-8.66c0-1.186-.282-2.028-.85-2.522-.566-.496-1.388-.744-2.468-.744a4.72 4.72 0 0 0-2.35.628 5.462 5.462 0 0 0-1.776 1.534v9.764a1.712 1.712 0 0 1-.526 1.254 1.754 1.754 0 0 1-1.288.528 1.726 1.726 0 0 1-1.28-.528 1.724 1.724 0 0 1-.52-1.254m21.968-7.9h9.06a4.312 4.312 0 0 0-.296-1.378 4.554 4.554 0 0 0-.784-1.286 3.682 3.682 0 0 0-1.412-.986 5.188 5.188 0 0 0-2.03-.376c-1.364 0-2.436.412-3.218 1.234-.78.82-1.22 1.752-1.32 2.792m-3.746 1.302c0-1.56.348-2.994 1.048-4.296a7.908 7.908 0 0 1 2.96-3.1 8.16 8.16 0 0 1 4.276-1.148c1.88 0 3.49.524 4.828 1.568 1.336 1.044 2.258 2.458 2.764 4.24.274.934.412 1.66.412 2.176a1.68 1.68 0 0 1-.52 1.228 1.7 1.7 0 0 1-1.246.52h-10.744c.12 1.192.64 2.188 1.56 2.99.92.8 2.11 1.2 3.574 1.2a8.34 8.34 0 0 0 3.664-.82 1.844 1.844 0 0 1 .742-.154 1.52 1.52 0 0 1 1.048.43 1.372 1.372 0 0 1 .47 1.056c0 .44-.226.84-.676 1.204a5.048 5.048 0 0 1-1.692.858 15.08 15.08 0 0 1-2.046.478 12.004 12.004 0 0 1-1.874.164c-2.476 0-4.52-.794-6.13-2.384-1.612-1.588-2.42-3.66-2.42-6.21m28.602 5.758v-18.36a1.86 1.86 0 0 1 .586-1.368 1.976 1.976 0 0 1 1.444-.578c.54 0 1.008.196 1.404.586a1.852 1.852 0 0 1 .594 1.36V97.53h8.35c.474 0 .884.168 1.23.504a1.62 1.62 0 0 1 .52 1.21 1.782 1.782 0 0 1-.52 1.304 1.67 1.67 0 0 1-1.23.528h-9.934c-.672 0-1.248-.24-1.726-.718a2.328 2.328 0 0 1-.718-1.706m19.624-7.06h9.06a4.32 4.32 0 0 0-1.08-2.664 3.686 3.686 0 0 0-1.412-.986 5.186 5.186 0 0 0-2.03-.376c-1.364 0-2.436.412-3.22 1.234-.78.82-1.22 1.752-1.32 2.792m-3.744 1.302c0-1.56.348-2.994 1.046-4.296a7.916 7.916 0 0 1 2.964-3.1 8.16 8.16 0 0 1 4.274-1.148c1.88 0 3.49.524 4.828 1.568 1.336 1.044 2.26 2.458 2.764 4.24.274.934.412 1.66.412 2.176a1.68 1.68 0 0 1-.52 1.228 1.7 1.7 0 0 1-1.244.52H218.91c.12 1.192.64 2.188 1.56 2.99.92.8 2.11 1.2 3.574 1.2a8.34 8.34 0 0 0 3.664-.82 1.846 1.846 0 0 1 .74-.154 1.52 1.52 0 0 1 1.05.43 1.372 1.372 0 0 1 .47 1.056c0 .44-.224.84-.676 1.204a5.046 5.046 0 0 1-1.692.858 15.08 15.08 0 0 1-2.046.478 12.004 12.004 0 0 1-1.874.164c-2.476 0-4.52-.794-6.132-2.384-1.612-1.588-2.416-3.66-2.416-6.21m22.528 3.25c0 .848.322 1.532.972 2.054.646.522 1.46.784 2.436.784.8 0 1.54-.14 2.222-.42.68-.28 1.22-.692 1.614-1.23v-2.44a3.686 3.686 0 0 0-1.614-1.206 5.884 5.884 0 0 0-2.222-.412c-.988 0-1.804.26-2.446.776-.64.516-.962 1.214-.962 2.094m-3.714-.066c0-.9.172-1.7.514-2.4.344-.698.796-1.254 1.36-1.666a6.392 6.392 0 0 1 1.832-.932 6.672 6.672 0 0 1 2.032-.314c1.1 0 2.1.18 3.006.536.906.36 1.644.878 2.214 1.56v-2.4c0-.892-.346-1.596-1.036-2.116-.692-.52-1.604-.78-2.734-.78-1.474 0-2.77.36-3.89 1.074a1.47 1.47 0 0 1-.75.214 1.446 1.446 0 0 1-.992-.396 1.31 1.31 0 0 1-.44-1.024c0-.296.092-.554.28-.774.596-.748 1.51-1.32 2.746-1.716a11.828 11.828 0 0 1 3.622-.594c.942 0 1.81.108 2.6.322a6.9 6.9 0 0 1 2.146.99c.64.444 1.144 1.06 1.512 1.848.368.786.55 1.706.55 2.762v9.22a1.704 1.704 0 0 1-.534 1.254 1.73 1.73 0 0 1-1.256.528h-.196c-.34 0-.696-.138-1.068-.412-.374-.276-.56-.688-.56-1.238v-.296a5.814 5.814 0 0 1-2.254 1.6 7.74 7.74 0 0 1-2.966.56 6.34 6.34 0 0 1-3.872-1.344 4.748 4.748 0 0 1-1.352-1.706 5.314 5.314 0 0 1-.514-2.36m19.144 3.414v-13.18a1.66 1.66 0 0 1 .528-1.236 1.846 1.846 0 0 1 1.338-.512c.472 0 .882.18 1.23.54a1.76 1.76 0 0 1 .52 1.268v.87c1.274-1.784 2.574-2.678 3.894-2.678.472 0 .856.152 1.148.452a1.596 1.596 0 0 1 .436 1.152c0 .546-.162.988-.486 1.33-.326.34-.746.546-1.264.614-1.66.152-2.904.812-3.73 1.978v9.418c0 .48-.176.894-.526 1.242a1.722 1.722 0 0 1-1.256.524h-.066a1.686 1.686 0 0 1-1.246-.528 1.726 1.726 0 0 1-.52-1.254m11.752 0v-13.18a1.66 1.66 0 0 1 .528-1.236 1.846 1.846 0 0 1 1.336-.512 1.68 1.68 0 0 1 1.23.52c.346.348.52.756.52 1.23v.676c.616-.738 1.428-1.36 2.434-1.872a7.242 7.242 0 0 1 3.326-.768c1.738 0 3.05.454 3.936 1.36.884.908 1.328 2.204 1.328 3.886v9.896a1.7 1.7 0 0 1-.536 1.254 1.78 1.78 0 0 1-1.296.528 1.72 1.72 0 0 1-1.262-.52 1.72 1.72 0 0 1-.52-1.26v-8.58c0-1.198-.284-2.054-.85-2.572-.566-.516-1.38-.776-2.434-.776a4.78 4.78 0 0 0-2.384.628 5.096 5.096 0 0 0-1.742 1.534v9.764a1.714 1.714 0 0 1-.528 1.254 1.754 1.754 0 0 1-1.288.528 1.724 1.724 0 0 1-1.28-.528 1.726 1.726 0 0 1-.52-1.254m19.196 0v-13.18a1.66 1.66 0 0 1 .528-1.236 1.846 1.846 0 0 1 1.336-.512 1.68 1.68 0 0 1 1.23.52 1.68 1.68 0 0 1 .52 1.23v13.18c0 .482-.176.9-.528 1.252a1.754 1.754 0 0 1-1.288.528 1.724 1.724 0 0 1-1.28-.528 1.726 1.726 0 0 1-.52-1.254m-.428-18.952c0-.604.218-1.12.652-1.55a2.16 2.16 0 0 1 1.576-.644c.618 0 1.142.214 1.576.644.436.428.654.946.654 1.55 0 .626-.22 1.156-.654 1.584a2.16 2.16 0 0 1-1.576.644 2.16 2.16 0 0 1-1.576-.644 2.138 2.138 0 0 1-.652-1.584m8.6 18.952v-13.18c0-.482.174-.894.528-1.236a1.846 1.846 0 0 1 1.336-.512 1.68 1.68 0 0 1 1.23.52c.346.348.52.756.52 1.23v.676c.616-.738 1.426-1.36 2.434-1.872a7.24 7.24 0 0 1 3.326-.768c1.738 0 3.05.454 3.936 1.36.884.908 1.328 2.204 1.328 3.886v9.896a1.7 1.7 0 0 1-.536 1.254 1.78 1.78 0 0 1-1.296.528 1.72 1.72 0 0 1-1.262-.52 1.72 1.72 0 0 1-.52-1.26v-8.58c0-1.198-.284-2.054-.85-2.572-.568-.516-1.38-.776-2.434-.776-.848 0-1.642.21-2.386.628a5.12 5.12 0 0 0-1.74 1.534v9.764a1.72 1.72 0 0 1-.528 1.254 1.754 1.754 0 0 1-1.288.528 1.724 1.724 0 0 1-1.28-.528 1.726 1.726 0 0 1-.52-1.254m23.148-10.51c-.83.94-1.246 2.186-1.246 3.732 0 1.544.416 2.79 1.246 3.732.83.942 1.94 1.414 3.326 1.414.814 0 1.608-.208 2.384-.626.776-.416 1.362-.936 1.76-1.56V89.72c-.398-.612-.984-1.126-1.76-1.536a5.038 5.038 0 0 0-2.384-.618c-1.386 0-2.496.472-3.326 1.416m-4.96 3.732c0-2.6.668-4.646 2.006-6.134 1.336-1.486 3.08-2.23 5.224-2.23 1.012 0 1.966.228 2.864.686.896.456 1.674 1.108 2.334 1.954v-.644c0-.494.176-.914.526-1.26a1.816 1.816 0 0 1 1.33-.52c.472 0 .882.174 1.234.526a1.72 1.72 0 0 1 .524 1.254v13.856c0 1.142-.164 2.158-.494 3.042-.33.886-.762 1.604-1.296 2.154-.534.55-1.178 1-1.93 1.352a9.268 9.268 0 0 1-2.27.734 13.57 13.57 0 0 1-2.426.206 13.63 13.63 0 0 1-3.614-.472c-1.156-.314-2.036-.82-2.64-1.514a1.588 1.588 0 0 1-.314-.926c0-.432.154-.792.46-1.084a1.554 1.554 0 0 1 1.11-.44c.296 0 .566.066.808.194 1.136.684 2.536 1.026 4.2 1.026.616 0 1.192-.072 1.726-.216a5.26 5.26 0 0 0 1.52-.684c.48-.314.858-.758 1.132-1.33.276-.574.414-1.254.414-2.04v-1.83a7.138 7.138 0 0 1-2.32 1.984 6.005 6.005 0 0 1-2.88.718c-2.144 0-3.886-.738-5.22-2.214-1.34-1.476-2.008-3.526-2.008-6.148m34.378.526h8.02l-3.992-10.638-4.028 10.64zm-6.452 5.858a1.46 1.46 0 0 1 .18-.742l7.032-17.884a3.243 3.243 0 0 1 1.236-1.548 3.343 3.343 0 0 1 1.9-.578h.164c.66 0 1.282.176 1.866.528a3.356 3.356 0 0 1 1.352 1.6l7.064 17.88c.088.31.132.556.132.744 0 .554-.204 1.054-.61 1.502a2.004 2.004 0 0 1-1.552.674c-.428 0-.822-.122-1.18-.366a2.12 2.12 0 0 1-.784-.964l-1.188-3.156h-10.264l-1.222 3.156a1.9 1.9 0 0 1-.768.964 2.128 2.128 0 0 1-1.196.366 2.04 2.04 0 0 1-1.552-.648 2.154 2.154 0 0 1-.61-1.528zm27.776-2.986c.396.592.984 1.1 1.766 1.524.78.424 1.568.636 2.36.636 1.374 0 2.48-.5 3.316-1.5.836-1 1.256-2.294 1.256-3.878 0-1.56-.42-2.84-1.256-3.834-.834-.996-1.94-1.494-3.316-1.494-.792 0-1.58.21-2.36.628-.782.418-1.37.928-1.766 1.534zm-3.614 9.632v-19.43c0-.484.176-.896.528-1.238a1.846 1.846 0 0 1 1.336-.512 1.68 1.68 0 0 1 1.23.52c.346.348.52.756.52 1.23v.642a6.56 6.56 0 0 1 2.294-1.912 6.376 6.376 0 0 1 2.92-.694c2.148 0 3.884.766 5.208 2.294 1.326 1.528 1.988 3.612 1.988 6.25 0 2.65-.664 4.746-1.996 6.284-1.33 1.54-3.064 2.31-5.2 2.31a6.316 6.316 0 0 1-2.88-.676 6.778 6.778 0 0 1-2.334-1.964v6.896a1.66 1.66 0 0 1-.536 1.23 1.778 1.778 0 0 1-1.28.52 1.748 1.748 0 0 1-1.27-.52 1.668 1.668 0 0 1-.528-1.23zm23.17-9.632c.396.592.986 1.1 1.768 1.524.78.424 1.566.636 2.36.636 1.374 0 2.48-.5 3.316-1.5.836-1 1.254-2.294 1.254-3.878 0-1.56-.418-2.84-1.254-3.834-.836-.996-1.942-1.494-3.316-1.494-.794 0-1.58.21-2.36.628-.782.418-1.372.928-1.768 1.534zm-3.614 9.632v-19.43c0-.484.176-.896.528-1.238a1.846 1.846 0 0 1 1.338-.512 1.68 1.68 0 0 1 1.228.52 1.68 1.68 0 0 1 .52 1.23v.642a6.556 6.556 0 0 1 5.216-2.606c2.146 0 3.882.766 5.208 2.294s1.988 3.612 1.988 6.25c0 2.65-.666 4.746-1.996 6.284-1.33 1.54-3.064 2.31-5.2 2.31a6.304 6.304 0 0 1-2.88-.676 6.776 6.776 0 0 1-2.336-1.964v6.896a1.66 1.66 0 0 1-.536 1.23 1.778 1.778 0 0 1-1.28.52 1.748 1.748 0 0 1-1.27-.52 1.668 1.668 0 0 1-.528-1.23z"/><path fill="#813588" d="M102.23 0c1.996 0 3.82.768 5.208 2.13a7.238 7.238 0 0 1 2.17 5.116v93.508c0 1.96-.78 3.75-2.17 5.114a7.504 7.504 0 0 1-5.208 2.13H7.376a7.345 7.345 0 0 1-5.206-2.13A7.238 7.238 0 0 1 0 100.754V7.246c0-1.96.78-3.752 2.17-5.116A7.504 7.504 0 0 1 7.376 0Z" class="st1"/><path fill="#4b205a" d="M72.116 83.79 49.38 90.27c-1.91.51-3.906-.512-4.514-2.388L27.684 29.066c-.52-1.874.52-3.92 2.516-4.432L53.72 17.9c5.466-1.62 11.28 0 15.1 4.178 3.124 3.152 4.686 7.414 4.512 11.848-.174 4.346-2.256 8.524-5.554 11.336 9.72.596 17.616 7.928 18.66 17.474 1.04 9.46-5.036 18.326-14.32 21.054" class="st2"/><path fill="#fefefe" d="M47.818 94.872c-3.212 0-6.076-2.132-6.944-5.2L23.26 29.408c-1.128-3.836 1.128-7.758 4.946-8.866L52.42 13.64c1.474-.426 3.036-.596 4.686-.596a21.514 21.514 0 0 1 15.968 7.074c2.69 3.24 4.252 7.246 4.686 11.422a19.13 19.13 0 0 1-2.256 10.912 24.24 24.24 0 0 1 11.802 9.716c3.038 4.86 4.252 10.57 3.56 16.28-.61 4.434-2.606 8.526-5.642 11.85a23.184 23.184 0 0 1-11.022 7.416l-24.386 6.904a8.556 8.556 0 0 1-1.996.256Zm10.066-77.654c-1.388 0-2.864.17-4.166.598l-23.604 6.732c-1.91.598-3.038 2.56-2.516 4.434L44.78 87.796c.26.94.868 1.706 1.736 2.132.868.426 1.822.596 2.776.34l22.74-6.478c9.37-2.642 15.36-11.592 14.318-21.054-1.042-9.546-8.94-16.878-18.66-17.474a15.48 15.48 0 0 0 5.556-10.91c.26-4.52-1.39-8.95-4.514-12.274a14.448 14.448 0 0 0-10.848-4.86z" class="st3"/><path fill="#813588" d="M79.146 68.106c0-9.972-8.07-17.986-18.224-18.156a15.436 15.436 0 0 0 5.38-10.826c.26-4.176-1.3-8.268-4.166-11.336-3.644-4.176-9.46-5.796-14.84-4.262l-19.7 5.626L44.78 87.796c.26.94.868 1.706 1.736 2.132.868.426 1.822.596 2.776.34l16.142-4.602.26-.086c7.986-2.216 13.452-9.376 13.452-17.474" class="st1"/></g></svg>